<svg viewBox="0 0 800 500" xmlns="http://www.w3.org/2000/svg">
  <!-- Background -->
  <rect x="0" y="0" width="800" height="500" fill="#f8f9fa" rx="10" ry="10" />
  
  <!-- Title -->
  <text x="400" y="40" font-family="Arial, sans-serif" font-size="24" font-weight="bold" text-anchor="middle" fill="#333">JavaScript Events Visualization</text>
  
  <!-- Mouse Click Event Section -->
  <g transform="translate(150, 150)">
    <!-- Mouse Icon -->
    <rect x="-50" y="-50" width="100" height="150" rx="50" ry="70" fill="#dee2e6" stroke="#495057" stroke-width="3" />
    <rect x="-50" y="-50" width="100" height="70" rx="50" ry="40" fill="#dee2e6" stroke="#495057" stroke-width="3" />
    <line x1="0" y1="-20" x2="0" y2="30" stroke="#495057" stroke-width="3" />
    
    <!-- Click Animation (Ripple Effect) -->
    <circle cx="0" cy="0" r="15" fill="#fd7e14" opacity="0.8">
      <animate attributeName="r" values="15;40" dur="1s" repeatCount="indefinite" />
      <animate attributeName="opacity" values="0.8;0" dur="1s" repeatCount="indefinite" />
    </circle>
    <circle cx="0" cy="0" r="10" fill="#fd7e14" />
    
    <!-- Left Button -->
    <rect x="-35" y="-40" width="30" height="40" rx="5" ry="5" fill="#fd7e14" stroke="#495057" stroke-width="1" />
    
    <!-- Event Label -->
    <text x="0" y="120" font-family="Arial, sans-serif" font-size="18" font-weight="bold" text-anchor="middle" fill="#212529">Mouse Click Event</text>
    <text x="0" y="145" font-family="Arial, sans-serif" font-size="14" text-anchor="middle" fill="#495057">element.addEventListener('click', function() {...})</text>
  </g>
  
  <!-- Keypress Event Section -->
  <g transform="translate(400, 150)">
    <!-- Keyboard Key -->
    <rect x="-40" y="-40" width="80" height="80" rx="10" ry="10" fill="#ffffff" stroke="#495057" stroke-width="3" />
    <text x="0" y="10" font-family="Arial, sans-serif" font-size="30" font-weight="bold" text-anchor="middle" fill="#212529">A</text>
    
    <!-- Keypress Animation -->
    <rect x="-40" y="-40" width="80" height="80" rx="10" ry="10" fill="#228be6" opacity="0.3">
      <animate attributeName="opacity" values="0.3;0;0.3" dur="1.5s" repeatCount="indefinite" />
    </rect>
    
    <!-- Event Label -->
    <text x="0" y="120" font-family="Arial, sans-serif" font-size="18" font-weight="bold" text-anchor="middle" fill="#212529">Keypress Event</text>
    <text x="0" y="145" font-family="Arial, sans-serif" font-size="14" text-anchor="middle" fill="#495057">document.addEventListener('keydown', function(e) {...})</text>
  </g>
  
  <!-- Page Load Event Section -->
  <g transform="translate(650, 150)">
    <!-- Webpage Icon -->
    <rect x="-50" y="-60" width="100" height="120" rx="5" ry="5" fill="#ffffff" stroke="#495057" stroke-width="3" />
    
    <!-- Browser Header -->
    <rect x="-50" y="-60" width="100" height="20" rx="5" ry="5" fill="#e9ecef" stroke="#495057" stroke-width="3" />
    <circle cx="-35" cy="-50" r="3" fill="#fa5252" />
    <circle cx="-25" cy="-50" r="3" fill="#fd7e14" />
    <circle cx="-15" cy="-50" r="3" fill="#40c057" />
    
    <!-- Page Content Lines -->
    <line x1="-35" y1="-25" x2="35" y2="-25" stroke="#adb5bd" stroke-width="2" />
    <line x1="-35" y1="-10" x2="25" y2="-10" stroke="#adb5bd" stroke-width="2" />
    <line x1="-35" y1="5" x2="35" y2="5" stroke="#adb5bd" stroke-width="2" />
    <line x1="-35" y1="20" x2="15" y2="20" stroke="#adb5bd" stroke-width="2" />
    <line x1="-35" y1="35" x2="30" y2="35" stroke="#adb5bd" stroke-width="2" />
    
    <!-- Load Animation -->
    <rect x="-50" y="-60" width="100" height="120" rx="5" ry="5" fill="#51cf66" opacity="0">
      <animate attributeName="opacity" values="0;0.3;0" dur="2s" repeatCount="indefinite" />
    </rect>
    
    <!-- Event Label -->
    <text x="0" y="120" font-family="Arial, sans-serif" font-size="18" font-weight="bold" text-anchor="middle" fill="#212529">Page Load Event</text>
    <text x="0" y="145" font-family="Arial, sans-serif" font-size="14" text-anchor="middle" fill="#495057">window.addEventListener('load', function() {...})</text>
  </g>
  
  <!-- Event Flow Diagram -->
  <g transform="translate(400, 350)">
    <!-- Box representing DOM -->
    <rect x="-250" y="0" width="500" height="100" rx="10" ry="10" fill="#e7f5ff" stroke="#1971c2" stroke-width="2" />
    <text x="0" y="30" font-family="Arial, sans-serif" font-size="18" font-weight="bold" text-anchor="middle" fill="#1971c2">Event Flow through DOM</text>
    
    <!-- Event Flow Arrows -->
    <g fill="#1971c2">
      <path d="M-150,50 L-100,50 L-110,45 L-100,50 L-110,55 Z" />
      <path d="M-50,50 L0,50 L-10,45 L0,50 L-10,55 Z" />
      <path d="M50,50 L100,50 L90,45 L100,50 L90,55 Z" />
      <path d="M150,50 L200,50 L190,45 L200,50 L190,55 Z" />
    </g>
    
    <!-- Event Flow Steps -->
    <text x="-200" y="70" font-family="Arial, sans-serif" font-size="14" text-anchor="middle" fill="#495057">Capture Phase</text>
    <text x="-75" y="70" font-family="Arial, sans-serif" font-size="14" text-anchor="middle" fill="#495057">Target Phase</text>
    <text x="75" y="70" font-family="Arial, sans-serif" font-size="14" text-anchor="middle" fill="#495057">Bubble Phase</text>
    <text x="200" y="70" font-family="Arial, sans-serif" font-size="14" text-anchor="middle" fill="#495057">Event Handled</text>
  </g>
</svg>